
<svg width="13" height="16" viewBox="0 0 13 16" fill="none" xmlns="http://www.w3.org/2000/svg">
<path d="M6.58493 4.85278C6.46944 4.85278 6.33175 4.82611 6.17185 4.77278C6.06525 4.74611 5.90091 4.68389 5.67882 4.58611C5.35903 4.46167 5.11473 4.37722 4.94595 4.33278C4.6528 4.24389 4.3863 4.20389 4.14645 4.21278C3.52462 4.22167 2.94054 4.39278 2.39421 4.72611C1.84789 5.05945 1.41483 5.50611 1.09503 6.06611C0.686392 6.77722 0.477633 7.62167 0.46875 8.59945C0.46875 9.46167 0.624208 10.355 0.935125 11.2794C1.21051 12.1239 1.57473 12.8706 2.02778 13.5194C2.30316 13.9106 2.52524 14.2083 2.69403 14.4128C2.96053 14.7239 3.21814 14.9594 3.46688 15.1194C3.76003 15.3061 4.05762 15.395 4.35965 15.3861C4.55508 15.3772 4.74608 15.3461 4.93263 15.2928C5.04811 15.2572 5.21245 15.195 5.42565 15.1061C5.67438 14.9994 5.86982 14.9239 6.01195 14.8794C6.26068 14.8172 6.51608 14.7861 6.77814 14.7861C7.0402 14.7861 7.28671 14.8172 7.51767 14.8794C7.65093 14.915 7.83303 14.9839 8.064 15.0861C8.29497 15.1883 8.47263 15.2572 8.597 15.2928C8.80132 15.3461 9.01008 15.3728 9.22328 15.3728C9.53419 15.3639 9.83178 15.2706 10.116 15.0928C10.3559 14.9417 10.6002 14.7194 10.8489 14.4261C11.0088 14.2306 11.222 13.9372 11.4885 13.5461C11.7817 13.1106 12.0393 12.6394 12.2614 12.1328C12.3769 11.8661 12.4613 11.6394 12.5146 11.4528C12.3813 11.4083 12.2081 11.3106 11.9949 11.1594C11.604 10.9017 11.2887 10.5906 11.0488 10.2261C10.7112 9.71056 10.538 9.11945 10.5291 8.45278C10.5202 7.90167 10.649 7.38611 10.9156 6.90611C11.111 6.55945 11.3642 6.24833 11.6751 5.97278C11.8439 5.83056 11.9949 5.72389 12.1281 5.65278C11.7461 5.09278 11.2442 4.68833 10.6224 4.43945C10.2582 4.29722 9.85843 4.21278 9.42315 4.18611C9.08558 4.15945 8.73025 4.195 8.35715 4.29278C8.13507 4.34611 7.82859 4.45278 7.43773 4.61278C7.21564 4.69278 7.06018 4.75056 6.97135 4.78611C6.81145 4.83056 6.68264 4.85278 6.58493 4.85278ZM8.66362 2.97278C8.93901 2.64389 9.14332 2.27945 9.27658 1.87945C9.42759 1.44389 9.48089 1.02167 9.43647 0.61278C9.06338 0.621669 8.67473 0.730557 8.27054 0.939446C7.86635 1.14834 7.531 1.40833 7.2645 1.71945C6.998 2.03056 6.78924 2.37722 6.63823 2.75945C6.47832 3.195 6.42502 3.61278 6.47832 4.01278C6.86919 4.04833 7.26894 3.95945 7.67758 3.74611C8.05956 3.55945 8.38824 3.30167 8.66362 2.97278Z" fill="#1F2937"/>
</svg>
