<svg width="25" height="25" viewBox="0 0 25 25" fill="none" xmlns="http://www.w3.org/2000/svg">
<path fill-rule="evenodd" clip-rule="evenodd" d="M8.08389 17.8525C6.15245 16.5739 4.80678 14.5817 4.34189 12.3125C3.75862 12.2933 3.20579 12.0476 2.80067 11.6275C2.39555 11.2074 2.17001 10.6461 2.17189 10.0625C2.17189 8.8425 3.18189 7.8125 4.42189 7.8125H4.61189C5.79189 4.2525 9.12189 1.8125 12.9219 1.8125C16.7219 1.8125 20.0719 4.2625 21.2419 7.8325C22.3319 7.9925 23.1719 8.9225 23.1719 10.0625C23.1719 11.1025 22.4719 11.9725 21.5119 12.2325C21.2906 13.3716 20.8446 14.4551 20.2001 15.42C19.5556 16.3849 18.7254 17.2118 17.7579 17.8525C18.9836 19.1142 19.67 20.8035 19.6719 22.5625C19.6719 22.9725 19.3319 23.3125 18.9219 23.3125C18.5119 23.3125 18.1719 22.9725 18.1719 22.5625C18.171 21.8123 18.0099 21.071 17.6995 20.3881C17.3891 19.7052 16.9365 19.0964 16.3719 18.6025C15.2823 19.0719 14.1083 19.3135 12.9219 19.3125C11.7356 19.3139 10.5615 19.0726 9.47189 18.6035L9.45189 18.6225C8.32189 19.6225 7.67189 21.0625 7.67189 22.5625C7.67189 22.9725 7.33189 23.3125 6.92189 23.3125C6.51189 23.3125 6.17189 22.9725 6.17189 22.5625C6.17189 20.8025 6.86189 19.1075 8.08389 17.8525ZM12.9219 5.6515C12.3535 6.75302 11.4931 7.67704 10.4349 8.32254C9.37673 8.96804 8.16142 9.31016 6.92189 9.3115H5.42189C5.38072 9.3107 5.33964 9.30736 5.29889 9.3015C5.25681 9.30753 5.21439 9.31087 5.17189 9.3115H4.42189C4.01189 9.3115 3.67189 9.6515 3.67189 10.0615C3.67189 10.4715 4.01189 10.8115 4.42189 10.8115H4.98189C5.36189 10.8115 5.68189 11.0915 5.72189 11.4715C6.17189 15.0915 9.26189 17.8115 12.9219 17.8115C16.5819 17.8115 19.6719 15.0815 20.1219 11.4715C20.1719 11.0915 20.4919 10.8115 20.8619 10.8115C21.3319 10.8115 21.6719 10.4715 21.6719 10.0615C21.6719 9.6515 21.3319 9.3115 20.9219 9.3115H20.6719C20.6301 9.31079 20.5883 9.30745 20.5469 9.3015C20.5055 9.30745 20.4637 9.31079 20.4219 9.3115H18.9219C17.6824 9.31016 16.467 8.96804 15.4089 8.32254C14.3507 7.67704 13.4903 6.75302 12.9219 5.6515ZM19.6289 7.8115H18.9219C16.3019 7.8115 14.1179 5.8725 13.7319 3.3575C15.0239 3.50294 16.253 3.99314 17.2905 4.77675C18.328 5.56036 19.1356 6.60854 19.6289 7.8115ZM6.92189 7.8115C9.54189 7.8115 11.7259 5.8725 12.1119 3.3575C10.8194 3.50243 9.58961 3.99239 8.55156 4.77603C7.51351 5.55967 6.70538 6.60813 6.21189 7.8115H6.92189ZM12.9219 16.3115C11.9619 16.3115 11.1719 15.5215 11.1719 14.5615C11.1719 14.1515 11.5119 13.8115 11.9219 13.8115H13.9219C14.3319 13.8115 14.6719 14.1515 14.6719 14.5615C14.6719 15.5215 13.8819 16.3115 12.9219 16.3115ZM9.92189 11.5715C9.37189 11.5715 8.92189 11.1215 8.92189 10.5715C8.92189 10.0215 9.37189 9.5715 9.92189 9.5715C10.4719 9.5715 10.9219 10.0115 10.9219 10.5715C10.9219 11.1315 10.4719 11.5815 9.92189 11.5815V11.5715ZM14.9219 10.5715C14.9219 11.1215 15.3719 11.5715 15.9219 11.5715V11.5815C16.4719 11.5815 16.9219 11.1315 16.9219 10.5715C16.9219 10.0115 16.4719 9.5715 15.9219 9.5715C15.3719 9.5715 14.9219 10.0215 14.9219 10.5715Z" fill="#113119"/>
</svg>
