<svg xmlns="http://www.w3.org/2000/svg" width="20" height="20" viewBox="0 0 20 20" fill="none">
<path d="M12.0803 19.7562C11.8703 19.7562 11.6703 19.6762 11.5203 19.5062C6.60031 14.0362 10.0103 10.5062 10.0503 10.4762C10.1399 10.3886 10.2498 10.3245 10.3702 10.2896C10.4906 10.2547 10.6177 10.2501 10.7403 10.2762C10.9903 10.3262 11.1903 10.5062 11.2803 10.7462C11.9803 12.5962 14.3703 12.2862 14.4703 12.2662C14.6703 12.2362 14.8703 12.2862 15.0303 12.4162L16.8003 13.7762C16.8003 13.7762 16.8803 13.7662 16.9403 13.6962L18.2903 12.0662C18.3403 11.9962 18.3403 11.8362 18.2503 11.7462L16.9603 10.3762C16.2609 9.62527 15.8044 8.68079 15.6503 7.66624C15.5103 6.77624 14.9003 5.91624 14.4303 5.45624L13.5303 4.52624C13.3303 4.32624 13.2703 4.03624 13.3603 3.76624L13.9603 1.95624C13.3303 2.15624 12.6103 2.54624 12.2503 3.31624C12.1403 3.55624 11.9003 3.72624 11.6303 3.74624C5.03031 4.29624 1.82031 9.28624 1.82031 18.9962C1.82031 19.4062 1.48031 19.7462 1.07031 19.7462C0.660313 19.7462 0.320312 19.4062 0.320312 18.9962C0.320312 8.69624 3.95031 3.07624 11.1003 2.28624C12.3303 0.296237 14.9403 0.246237 15.0603 0.246237C15.2803 0.216237 15.5303 0.356237 15.6703 0.556237C15.8103 0.756237 15.8503 1.00624 15.7803 1.23624L14.9203 3.80624L15.4903 4.38624C16.1503 5.01624 16.9403 6.16624 17.1403 7.42624C17.2503 8.14624 17.5803 8.82624 18.0603 9.33624L19.3403 10.7062C19.9203 11.3162 19.9703 12.2962 19.4603 12.9762L18.1103 14.6062C17.6203 15.2762 16.6703 15.4562 15.9403 14.9962L14.3503 13.7762C13.2903 13.8562 11.6303 13.6162 10.5703 12.4362C10.1603 13.5362 10.0303 15.6062 12.6303 18.4962C12.9103 18.8062 12.8803 19.2762 12.5703 19.5562C12.4303 19.6862 12.2503 19.7462 12.0703 19.7462L12.0803 19.7562Z" fill="white"/>
</svg>