<svg width="31" height="30" viewBox="0 0 31 30" fill="none" xmlns="http://www.w3.org/2000/svg">
<path d="M0.5 15C0.5 6.71573 7.21573 0 15.5 0C23.7843 0 30.5 6.71573 30.5 15C30.5 23.2843 23.7843 30 15.5 30C7.21573 30 0.5 23.2843 0.5 15Z" fill="#003315" fill-opacity="0.1"/>
<path d="M15.5082 12.334C15.0227 12.334 14.5757 12.4525 14.1671 12.6895C13.7586 12.9264 13.4359 13.2493 13.1991 13.6581C12.9622 14.0669 12.8438 14.5142 12.8438 15C12.8438 15.4858 12.9622 15.9331 13.1991 16.3419C13.4359 16.7507 13.7586 17.0736 14.1671 17.3105C14.5757 17.5475 15.0227 17.666 15.5082 17.666C15.9937 17.666 16.4407 17.5475 16.8493 17.3105C17.2578 17.0736 17.5805 16.7507 17.8173 16.3419C18.0542 15.9331 18.1726 15.4858 18.1726 15C18.1726 14.5142 18.0542 14.0669 17.8173 13.6581C17.5805 13.2493 17.2578 12.9264 16.8493 12.6895C16.4407 12.4525 15.9937 12.334 15.5082 12.334ZM15.5082 10.5566C16.3134 10.5566 17.0565 10.7551 17.7374 11.1521C18.4183 11.549 18.9571 12.0881 19.3538 12.7694C19.7505 13.4507 19.9488 14.1943 19.9488 15C19.9488 15.8057 19.7505 16.5493 19.3538 17.2306C18.9571 17.9119 18.4183 18.451 17.7374 18.8479C17.0565 19.2449 16.3134 19.4434 15.5082 19.4434C14.703 19.4434 13.9599 19.2449 13.279 18.8479C12.5981 18.451 12.0593 17.9119 11.6626 17.2306C11.2659 16.5493 11.0676 15.8057 11.0676 15C11.0676 14.1943 11.2659 13.4507 11.6626 12.7694C12.0593 12.0881 12.5981 11.549 13.279 11.1521C13.9599 10.7551 14.703 10.5566 15.5082 10.5566ZM21.281 10.3256C21.281 10.6337 21.1715 10.8973 20.9524 11.1165C20.7333 11.3357 20.4728 11.4453 20.1709 11.4453C19.8689 11.4453 19.6084 11.3357 19.3893 11.1165C19.1702 10.8973 19.0607 10.6366 19.0607 10.3345C19.0607 10.0323 19.1702 9.77165 19.3893 9.55244C19.6084 9.33323 19.8689 9.22363 20.1709 9.22363C20.4728 9.22363 20.7333 9.33323 20.9524 9.55244C21.1715 9.77165 21.281 10.0294 21.281 10.3256ZM15.5082 7.89062C14.4188 7.89062 13.6787 7.89359 13.2879 7.89951C12.8971 7.90544 12.4471 7.92025 11.9379 7.94394C11.2985 7.96764 10.7656 8.06243 10.3393 8.22832C9.97222 8.37051 9.64954 8.58083 9.37126 8.85928C9.09298 9.13773 8.88279 9.46061 8.74069 9.82793C8.57491 10.2545 8.48017 10.7877 8.45649 11.4275C8.43281 11.9133 8.41801 12.3488 8.41208 12.7339C8.40616 13.119 8.4032 13.8743 8.4032 15C8.4032 16.0901 8.40616 16.8307 8.41208 17.2217C8.41801 17.6127 8.43281 18.063 8.45649 18.5725C8.48017 19.2123 8.57491 19.7455 8.74069 20.1721C8.88279 20.5394 9.09298 20.8623 9.37126 21.1407C9.64954 21.4192 9.97222 21.6236 10.3393 21.7539C10.7656 21.9316 11.2985 22.0324 11.9379 22.0561C12.4234 22.0798 12.8586 22.0946 13.2435 22.1005C13.6283 22.1064 14.3832 22.1094 15.5082 22.1094C16.5976 22.1094 17.3377 22.1064 17.7285 22.1005C18.1193 22.0946 18.5693 22.0798 19.0785 22.0561C19.7179 22.0324 20.2508 21.9376 20.6771 21.7717C21.0442 21.6295 21.3669 21.4192 21.6451 21.1407C21.9234 20.8623 22.1277 20.5394 22.258 20.1721C22.4356 19.7455 22.5362 19.2123 22.5599 18.5725C22.5836 18.0867 22.5984 17.6512 22.6043 17.2661C22.6102 16.881 22.6132 16.1257 22.6132 15C22.6132 13.9099 22.6102 13.1693 22.6043 12.7783C22.5984 12.3873 22.5836 11.937 22.5599 11.4275C22.5362 10.7877 22.4415 10.2545 22.2757 9.82793C22.1336 9.46061 21.9234 9.13773 21.6451 8.85928C21.3669 8.58083 21.0442 8.37051 20.6771 8.22832C20.2508 8.06243 19.7179 7.96764 19.0785 7.94394C18.593 7.92025 18.1578 7.90544 17.7729 7.89951C17.3881 7.89359 16.6332 7.89062 15.5082 7.89062ZM15.5082 6.11328C16.6687 6.11328 17.4621 6.11921 17.8884 6.13105C18.2436 6.13105 18.6699 6.1429 19.1673 6.1666C19.9962 6.20215 20.7126 6.33841 21.3165 6.57539C21.9205 6.81237 22.4474 7.15599 22.8974 7.60625C23.3474 8.05651 23.6908 8.58379 23.9276 9.18809C24.1645 9.79238 24.3006 10.5092 24.3362 11.3387C24.3598 11.8482 24.3717 12.2747 24.3717 12.6184C24.3835 13.0686 24.3895 13.8684 24.3895 15.0178C24.3895 16.1671 24.3835 16.9551 24.3717 17.3816C24.3717 17.7371 24.3598 18.1637 24.3362 18.6613C24.3006 19.4908 24.1645 20.2076 23.9276 20.8119C23.6908 21.4162 23.3474 21.9435 22.8974 22.3937C22.4474 22.844 21.9205 23.1876 21.3165 23.4246C20.7126 23.6616 19.9962 23.7979 19.1673 23.8334C18.6581 23.8571 18.2318 23.8689 17.8884 23.8689C17.4384 23.8808 16.6391 23.8867 15.4904 23.8867C14.3418 23.8867 13.5543 23.8808 13.128 23.8689C12.7728 23.8689 12.3465 23.8571 11.8491 23.8334C11.0202 23.7979 10.3038 23.6616 9.69987 23.4246C9.09594 23.1876 8.56899 22.844 8.119 22.3937C7.66902 21.9435 7.32561 21.4162 7.08878 20.8119C6.85194 20.2076 6.71577 19.4908 6.68024 18.6613C6.65656 18.1518 6.64472 17.7253 6.64472 17.3816C6.63287 16.9314 6.62695 16.1316 6.62695 14.9822C6.62695 13.8329 6.63287 13.0449 6.64472 12.6184C6.64472 12.2629 6.65656 11.8363 6.68024 11.3387C6.71577 10.5092 6.85194 9.79238 7.08878 9.18809C7.32561 8.58379 7.66902 8.05651 8.119 7.60625C8.56899 7.15599 9.09594 6.81237 9.69987 6.57539C10.3038 6.33841 11.0202 6.20215 11.8491 6.1666C12.3583 6.1429 12.7846 6.13105 13.128 6.13105C13.578 6.11921 14.3714 6.11328 15.5082 6.11328Z" fill="white" fill-opacity="0.6"/>
</svg>
