<svg width="33" height="36" viewBox="0 0 33 36" fill="none" xmlns="http://www.w3.org/2000/svg">
<path d="M1.5 18C1.5 9.71573 8.21573 3 16.5 3C24.7843 3 31.5 9.71573 31.5 18C31.5 26.2843 24.7843 33 16.5 33C8.21573 33 1.5 26.2843 1.5 18Z" fill="#0F3119"/>
<path d="M7.86039 9H25.1404C25.4092 9 25.6364 9.09667 25.822 9.29C26.0076 9.48333 26.1004 9.72 26.1004 10V26C26.1004 26.28 26.0076 26.5167 25.822 26.71C25.6364 26.9033 25.4092 27 25.1404 27H7.86039C7.59159 27 7.36439 26.9033 7.17879 26.71C6.99319 26.5167 6.90039 26.28 6.90039 26V10C6.90039 9.72 6.99319 9.48333 7.17879 9.29C7.36439 9.09667 7.59159 9 7.86039 9ZM24.1804 13.24L16.5772 20.34L8.82039 13.22V25H24.1804V13.24ZM9.31959 11L16.558 17.66L23.7004 11H9.31959Z" fill="white" fill-opacity="0.6"/>
</svg>
