<svg width="31" height="30" viewBox="0 0 31 30" fill="none" xmlns="http://www.w3.org/2000/svg">
<path d="M0.5 15C0.5 6.71573 7.21573 0 15.5 0C23.7843 0 30.5 6.71573 30.5 15C30.5 23.2843 23.7843 30 15.5 30C7.21573 30 0.5 23.2843 0.5 15Z" fill="#003315" fill-opacity="0.1"/>
<path d="M14.6548 6.11328V11.8186C14.2995 11.7475 13.9324 11.7119 13.5535 11.7119C12.4522 11.7119 11.4279 11.9904 10.4806 12.5473C9.56875 13.0805 8.84049 13.8092 8.29578 14.7334C7.73922 15.6695 7.46094 16.6914 7.46094 17.7993C7.46094 18.9072 7.73922 19.9292 8.29578 20.8652C8.84049 21.7895 9.56875 22.5182 10.4806 23.0514C11.4279 23.6083 12.4522 23.8867 13.5535 23.8867C14.6548 23.8867 15.6791 23.6083 16.6264 23.0514C17.5382 22.5182 18.2665 21.7895 18.8112 20.8652C19.3559 19.9292 19.6283 18.9042 19.6283 17.7904V14.4846C20.5874 14.8874 21.5999 15.0889 22.6656 15.0889H23.5538V10.1123H22.6656C22.1091 10.1123 21.5999 9.97604 21.1381 9.70352C20.6762 9.43099 20.3091 9.05478 20.0368 8.5749C19.7644 8.09502 19.6283 7.5707 19.6283 7.00195V6.11328H14.6548ZM16.431 7.89062H17.9408C18.0592 8.54232 18.2931 9.14365 18.6424 9.69463C18.9918 10.2456 19.4358 10.7048 19.9746 11.0721C20.5134 11.4394 21.1144 11.6823 21.7775 11.8008V13.2404C20.8894 13.1101 20.0427 12.7783 19.2375 12.2451L17.852 11.3209V17.7904C17.852 18.5725 17.6596 19.2952 17.2747 19.9588C16.8899 20.6223 16.3688 21.1466 15.7116 21.5317C15.0544 21.9168 14.335 22.1094 13.5535 22.1094C12.7719 22.1094 12.0525 21.9168 11.3953 21.5317C10.7381 21.1466 10.2141 20.6223 9.82335 19.9588C9.43258 19.2952 9.23719 18.5754 9.23719 17.7993C9.23719 17.0232 9.43258 16.3034 9.82335 15.6398C10.2141 14.9763 10.7381 14.452 11.3953 14.0669C12.0525 13.6818 12.7719 13.4893 13.5535 13.4893H13.7844V14.9111H13.5535C13.0324 14.9111 12.5499 15.0415 12.1058 15.3021C11.6618 15.5628 11.3095 15.9124 11.049 16.3508C10.7884 16.7892 10.6582 17.272 10.6582 17.7993C10.6582 18.3266 10.7884 18.8094 11.049 19.2479C11.3095 19.6863 11.6618 20.0358 12.1058 20.2965C12.5499 20.5572 13.0324 20.6875 13.5535 20.6875C14.0745 20.6875 14.5571 20.5572 15.0011 20.2965C15.4452 20.0358 15.7945 19.6863 16.0491 19.2479C16.3037 18.8094 16.431 18.3236 16.431 17.7904V7.89062ZM12.4344 17.7904C12.4344 17.4942 12.544 17.2365 12.763 17.0173C12.9821 16.7981 13.2456 16.6885 13.5535 16.6885C13.8614 16.6885 14.1219 16.7981 14.335 17.0173C14.5482 17.2365 14.6548 17.4972 14.6548 17.7993C14.6548 18.1015 14.5482 18.3621 14.335 18.5813C14.1219 18.8006 13.8614 18.9102 13.5535 18.9102C13.2456 18.9102 12.9821 18.8006 12.763 18.5813C12.544 18.3621 12.4344 18.0985 12.4344 17.7904Z" fill="white" fill-opacity="0.6"/>
</svg>
