<svg width="31" height="30" viewBox="0 0 31 30" fill="none" xmlns="http://www.w3.org/2000/svg">
<path d="M0.5 15C0.5 6.71573 7.21573 0 15.5 0C23.7843 0 30.5 6.71573 30.5 15C30.5 23.2843 23.7843 30 15.5 30C7.21573 30 0.5 23.2843 0.5 15Z" fill="#003315" fill-opacity="0.1"/>
<path d="M11.2985 20.7764L11.9379 21.1496C13.0392 21.7895 14.2323 22.1094 15.5171 22.1094C16.8019 22.1094 17.995 21.7835 19.0962 21.1318C20.162 20.5038 21.0087 19.6566 21.6363 18.5902C22.2876 17.4883 22.6132 16.2915 22.6132 15C22.6132 13.7085 22.2876 12.5117 21.6363 11.4098C21.0087 10.3434 20.162 9.49616 19.0962 8.86816C17.995 8.21647 16.7989 7.89062 15.5082 7.89062C14.2175 7.89062 13.0215 8.21647 11.9202 8.86816C10.8544 9.49616 10.0077 10.3434 9.38014 11.4098C8.72885 12.5117 8.4032 13.7055 8.4032 14.9911C8.4032 16.2767 8.72293 17.4705 9.36238 18.5725L9.73539 19.2123L9.16699 21.3451L11.2985 20.7764ZM6.62695 23.8867L7.8348 19.4789C7.44403 18.8035 7.14503 18.0896 6.9378 17.3372C6.73057 16.5848 6.62695 15.8057 6.62695 15C6.62695 13.7914 6.85787 12.6361 7.31969 11.5342C7.76967 10.4796 8.40616 9.54059 9.22916 8.71709C10.0522 7.89359 10.9906 7.2567 12.0445 6.80644C13.1458 6.34434 14.3004 6.11328 15.5082 6.11328C16.7161 6.11328 17.8706 6.34434 18.9719 6.80644C20.0258 7.2567 20.9643 7.89359 21.7872 8.71709C22.6102 9.54059 23.2467 10.4796 23.6967 11.5342C24.1585 12.6361 24.3895 13.7914 24.3895 15C24.3895 16.2086 24.1585 17.3639 23.6967 18.4658C23.2467 19.5204 22.6102 20.4594 21.7872 21.2829C20.9643 22.1064 20.0258 22.7433 18.9719 23.1936C17.8706 23.6557 16.7161 23.8867 15.5082 23.8867C14.703 23.8867 13.9244 23.783 13.1724 23.5757C12.4205 23.3683 11.707 23.0691 11.0321 22.6781L6.62695 23.8867ZM12.311 10.8232C12.4294 10.8232 12.5478 10.8232 12.6662 10.8232L12.8083 10.841C12.8794 10.8529 12.9474 10.8795 13.0126 10.921C13.0777 10.9625 13.1221 11.0069 13.1458 11.0543C13.4181 11.6586 13.6787 12.2629 13.9273 12.8672C13.9865 13.0094 13.9569 13.1693 13.8385 13.3471C13.7793 13.4537 13.7023 13.5663 13.6076 13.6848L13.2879 14.0402L13.2524 14.1113C13.2287 14.1706 13.2228 14.2239 13.2346 14.2713C13.2464 14.3187 13.276 14.3839 13.3234 14.4668L13.3767 14.5557C13.6135 14.9467 13.9155 15.3199 14.2826 15.6754L14.6023 15.9775C15.0286 16.3567 15.4964 16.6529 16.0056 16.8662L16.2365 16.9729C16.2957 16.9965 16.349 17.0143 16.3963 17.0262L16.4674 17.0439C16.5621 17.0439 16.6509 17.0025 16.7338 16.9195C17.1838 16.3626 17.4147 16.0842 17.4266 16.0842C17.5094 16.0012 17.6219 15.9657 17.764 15.9775C17.8232 15.9775 17.8765 15.9894 17.9239 16.0131L19.6824 16.7951C19.7298 16.8188 19.7712 16.8514 19.8067 16.8929C19.8423 16.9343 19.86 16.9788 19.86 17.0262V17.0439C19.86 17.1506 19.8541 17.2572 19.8423 17.3639C19.8067 17.6364 19.7534 17.8556 19.6824 18.0215C19.635 18.1163 19.5699 18.2051 19.487 18.2881C19.4041 18.371 19.3094 18.454 19.2028 18.5369L19.0962 18.6258C18.9897 18.685 18.8712 18.7502 18.741 18.8213C18.516 18.9398 18.2732 19.0049 18.0127 19.0168H17.9417C17.7522 19.0286 17.6101 19.0346 17.5154 19.0346L17.0003 18.9457C15.7214 18.6139 14.5846 18.0096 13.5899 17.1328C13.4833 17.038 13.3234 16.884 13.1103 16.6707L13.0215 16.5818C12.2399 15.7998 11.6597 14.9882 11.2807 14.1469C11.0794 13.7085 10.9788 13.2878 10.9788 12.885C10.9788 12.3281 11.1445 11.8304 11.4761 11.392L11.5116 11.3564C11.5827 11.2617 11.6478 11.1846 11.707 11.1254C11.8136 11.0187 11.9024 10.9477 11.9735 10.9121C12.0682 10.8647 12.1807 10.8351 12.311 10.8232Z" fill="white" fill-opacity="0.6"/>
</svg>
