<svg width="25" height="25" viewBox="0 0 25 25" fill="none" xmlns="http://www.w3.org/2000/svg">
<path d="M9.95644 3.68493C8.36494 3.68493 5.92494 4.60343 6.77344 10.2914C6.78678 10.3774 6.80261 10.4703 6.82094 10.5699C6.97594 11.4254 7.21494 12.7499 5.69394 13.8419C6.72844 14.6909 8.20194 15.5394 9.99244 15.9069C9.92159 16.313 9.83284 16.7157 9.72644 17.1139C9.58094 17.6479 9.27594 18.0264 8.73094 18.1879C8.25094 18.3299 7.74794 18.4449 7.23294 18.5629C7.10028 18.5929 6.96694 18.6236 6.83294 18.6549C6.19044 18.8044 5.53544 18.9699 4.95494 19.2039C4.37294 19.4389 3.83194 19.7554 3.44094 20.2274C3.04294 20.7089 2.82994 21.3159 2.84444 22.0749C2.84944 22.3109 3.05144 22.4999 3.29944 22.4999H21.3884C21.6364 22.4999 21.8384 22.3109 21.8434 22.0749C21.8579 21.3159 21.6454 20.7089 21.2469 20.2274C20.8564 19.7554 20.3149 19.4384 19.7334 19.2039C19.1524 18.9694 18.4974 18.8039 17.8544 18.6544L17.4554 18.5629C16.9399 18.4449 16.4369 18.3299 15.9569 18.1879C15.4119 18.0264 15.1069 17.6479 14.9614 17.1139C14.8343 16.6398 14.7332 16.1591 14.6584 15.6739C16.0274 15.2619 17.4824 14.5214 18.9939 13.3389L18.9869 13.3319C18.2774 12.6529 16.9474 11.3799 16.8529 8.35793C16.8529 4.19693 14.1999 0.539927 9.95644 3.68493Z" stroke="#113119" stroke-width="2" stroke-linejoin="round"/>
</svg>
