<svg width="22" height="21" viewBox="0 0 22 21" fill="none" xmlns="http://www.w3.org/2000/svg">
<path d="M9.79297 12.2306V13.9806C8.84797 13.9806 7.96714 14.2198 7.15047 14.6981C6.35714 15.1648 5.72714 15.789 5.26047 16.5706C4.78214 17.3873 4.54297 18.274 4.54297 19.2306H2.79297C2.79297 17.959 3.1138 16.7806 3.75547 15.6956C4.3738 14.634 5.20797 13.794 6.25797 13.1756C7.34297 12.5456 8.5213 12.2306 9.79297 12.2306ZM9.79297 11.3556C8.84797 11.3556 7.96714 11.1165 7.15047 10.6381C6.35714 10.1715 5.72714 9.54146 5.26047 8.74813C4.78214 7.93146 4.54297 7.04771 4.54297 6.09688C4.54297 5.14604 4.78214 4.26229 5.26047 3.44563C5.72714 2.66396 6.35714 2.03979 7.15047 1.57313C7.96714 1.09479 8.85089 0.855625 9.80172 0.855625C10.7526 0.855625 11.6363 1.09479 12.453 1.57313C13.2346 2.03979 13.8588 2.66396 14.3255 3.44563C14.8038 4.26229 15.043 5.14604 15.043 6.09688C15.043 7.04771 14.8038 7.93146 14.3255 8.74813C13.8588 9.54146 13.2346 10.1715 12.453 10.6381C11.6363 11.1165 10.7496 11.3556 9.79297 11.3556ZM9.79297 9.60563C10.423 9.60563 11.0063 9.44812 11.543 9.13313C12.0796 8.81812 12.5055 8.39229 12.8205 7.85563C13.1355 7.31896 13.293 6.73563 13.293 6.10563C13.293 5.47563 13.1355 4.89229 12.8205 4.35563C12.5055 3.81896 12.0796 3.39313 11.543 3.07812C11.0063 2.76312 10.423 2.60563 9.79297 2.60563C9.16297 2.60563 8.57964 2.76312 8.04297 3.07812C7.5063 3.39313 7.08047 3.81896 6.76547 4.35563C6.45047 4.89229 6.29297 5.47563 6.29297 6.10563C6.29297 6.73563 6.45047 7.31896 6.76547 7.85563C7.08047 8.39229 7.5063 8.81812 8.04297 9.13313C8.57964 9.44812 9.16297 9.60563 9.79297 9.60563ZM15.043 18.7931L12.4705 20.1406L12.9605 17.2706L10.878 15.2581L13.7655 14.8381L15.043 12.2306L16.338 14.8381L19.208 15.2581L17.1255 17.2706L17.6155 20.1406L15.043 18.7931Z" fill="#113119"/>
</svg>
